<svg width="229" height="64" viewBox="0 0 229 64" fill="none" xmlns="http://www.w3.org/2000/svg">
<rect x="0.350098" y="0.560547" width="228" height="63" rx="28.82" fill="#EEEBF4"/>
<g clip-path="url(#clip0_550_12883)">
<path d="M64.0225 41.6133C62.9426 43.2002 61.8262 44.7775 60.0637 44.8103C58.3283 44.8431 57.772 43.7768 55.7926 43.7768C53.8104 43.7768 53.1895 44.7775 51.5514 44.8431C49.8497 44.9077 48.5549 43.1298 47.4664 41.5496C45.2431 38.3198 43.5462 32.4164 45.8283 28.4326C46.9592 26.4552 48.9839 25.2028 51.1793 25.17C52.8501 25.1391 54.4293 26.3029 55.4504 26.3029C56.4723 26.3029 58.39 24.9049 60.4041 25.1102C61.2477 25.1459 63.6146 25.4525 65.1351 27.6883C65.0155 27.7674 62.3102 29.3495 62.3429 32.6459C62.3757 36.5834 65.7752 37.8917 65.8138 37.91C65.7839 38.0026 65.271 39.7785 64.0225 41.6123V41.6133ZM56.6199 20.7851C57.5531 19.686 59.1295 18.8684 60.4311 18.8135C60.5979 20.3407 59.9866 21.8698 59.0842 22.9708C58.1798 24.0699 56.6989 24.928 55.2469 24.8123C55.0493 23.3189 55.7811 21.7618 56.6199 20.7851Z" fill="#212337"/>
</g>
<path d="M80.9364 38.0605H78.0564L84.2439 22.0855H87.1464L93.3564 38.0605H90.3864L89.2389 34.978H82.0839L80.9364 38.0605ZM85.6839 25.4605H85.6389L82.9839 32.503H88.3389L85.6839 25.4605ZM97.6469 36.5305V42.7405H94.9694V26.383H97.4444V28.048C98.2694 26.758 99.5819 26.113 101.382 26.113C103.062 26.113 104.382 26.698 105.342 27.868C106.317 29.038 106.804 30.493 106.804 32.233C106.804 33.973 106.317 35.428 105.342 36.598C104.382 37.753 103.062 38.3305 101.382 38.3305C99.6719 38.3305 98.4269 37.7305 97.6469 36.5305ZM97.5569 32.233C97.5569 33.313 97.8494 34.2055 98.4344 34.9105C99.0344 35.6155 99.8369 35.968 100.842 35.968C101.832 35.968 102.627 35.6155 103.227 34.9105C103.827 34.1905 104.127 33.298 104.127 32.233C104.127 31.138 103.827 30.2305 103.227 29.5105C102.627 28.7905 101.832 28.4305 100.842 28.4305C99.8369 28.4305 99.0344 28.7905 98.4344 29.5105C97.8494 30.2155 97.5569 31.123 97.5569 32.233ZM111.709 36.5305V42.7405H109.032V26.383H111.507V28.048C112.332 26.758 113.644 26.113 115.444 26.113C117.124 26.113 118.444 26.698 119.404 27.868C120.379 29.038 120.867 30.493 120.867 32.233C120.867 33.973 120.379 35.428 119.404 36.598C118.444 37.753 117.124 38.3305 115.444 38.3305C113.734 38.3305 112.489 37.7305 111.709 36.5305ZM111.619 32.233C111.619 33.313 111.912 34.2055 112.497 34.9105C113.097 35.6155 113.899 35.968 114.904 35.968C115.894 35.968 116.689 35.6155 117.289 34.9105C117.889 34.1905 118.189 33.298 118.189 32.233C118.189 31.138 117.889 30.2305 117.289 29.5105C116.689 28.7905 115.894 28.4305 114.904 28.4305C113.899 28.4305 113.097 28.7905 112.497 29.5105C111.912 30.2155 111.619 31.123 111.619 32.233ZM134.581 35.923C135.676 35.923 136.523 35.7355 137.123 35.3605C137.723 34.9705 138.023 34.4155 138.023 33.6955C138.023 33.1705 137.858 32.743 137.528 32.413C137.198 32.083 136.771 31.8355 136.246 31.6705C135.721 31.5055 135.143 31.363 134.513 31.243C133.883 31.108 133.246 30.9505 132.601 30.7705C131.971 30.5755 131.393 30.328 130.868 30.028C130.343 29.728 129.916 29.278 129.586 28.678C129.256 28.078 129.091 27.343 129.091 26.473C129.091 25.153 129.608 24.0355 130.643 23.1205C131.693 22.2055 133.081 21.748 134.806 21.748C136.621 21.748 138.031 22.243 139.036 23.233C140.056 24.208 140.581 25.4755 140.611 27.0355H137.933C137.918 26.2105 137.641 25.5355 137.101 25.0105C136.561 24.4705 135.796 24.2005 134.806 24.2005C133.861 24.2005 133.118 24.3955 132.578 24.7855C132.053 25.1605 131.791 25.7005 131.791 26.4055C131.791 26.8705 131.956 27.2605 132.286 27.5755C132.616 27.8755 133.043 28.108 133.568 28.273C134.108 28.423 134.693 28.5655 135.323 28.7005C135.968 28.8205 136.606 28.9855 137.236 29.1955C137.881 29.3905 138.466 29.653 138.991 29.983C139.531 30.298 139.966 30.763 140.296 31.378C140.626 31.978 140.791 32.713 140.791 33.583C140.791 35.038 140.213 36.2005 139.058 37.0705C137.903 37.9405 136.366 38.3755 134.446 38.3755C132.481 38.3755 131.003 37.858 130.013 36.823C129.023 35.788 128.506 34.5355 128.461 33.0655H131.161C131.221 33.9505 131.543 34.648 132.128 35.158C132.713 35.668 133.531 35.923 134.581 35.923ZM148.727 35.6755V37.993C148.397 38.083 147.932 38.128 147.332 38.128C145.052 38.128 143.912 36.9805 143.912 34.6855V28.5205H142.135V26.383H143.912V23.3455H146.59V26.383H148.772V28.5205H146.59V34.4155C146.59 35.3305 147.025 35.788 147.895 35.788L148.727 35.6755ZM155.958 38.3305C154.158 38.3305 152.695 37.738 151.57 36.553C150.46 35.368 149.905 33.928 149.905 32.233C149.905 30.538 150.46 29.098 151.57 27.913C152.695 26.713 154.158 26.113 155.958 26.113C157.773 26.113 159.235 26.713 160.345 27.913C161.47 29.098 162.033 30.538 162.033 32.233C162.033 33.928 161.47 35.368 160.345 36.553C159.235 37.738 157.773 38.3305 155.958 38.3305ZM152.583 32.233C152.583 33.343 152.898 34.243 153.528 34.933C154.173 35.623 154.983 35.968 155.958 35.968C156.948 35.968 157.758 35.623 158.388 34.933C159.033 34.243 159.355 33.343 159.355 32.233C159.355 31.108 159.033 30.2005 158.388 29.5105C157.758 28.8205 156.948 28.4755 155.958 28.4755C154.983 28.4755 154.173 28.8205 153.528 29.5105C152.898 30.2005 152.583 31.108 152.583 32.233ZM170.813 26.293V28.7905C170.603 28.7605 170.4 28.7455 170.205 28.7455C168.195 28.7455 167.19 29.8255 167.19 31.9855V38.0605H164.513V26.383H166.988V28.003C167.648 26.848 168.795 26.2705 170.43 26.2705L170.813 26.293ZM183.002 32.998H174.115C174.22 33.928 174.557 34.6705 175.127 35.2255C175.697 35.7655 176.447 36.0355 177.377 36.0355C177.992 36.0355 178.547 35.8855 179.042 35.5855C179.537 35.2855 179.89 34.8805 180.1 34.3705H182.8C182.44 35.5555 181.765 36.5155 180.775 37.2505C179.8 37.9705 178.645 38.3305 177.31 38.3305C175.57 38.3305 174.16 37.753 173.08 36.598C172.015 35.443 171.482 33.9805 171.482 32.2105C171.482 30.4855 172.022 29.038 173.102 27.868C174.182 26.698 175.577 26.113 177.287 26.113C178.997 26.113 180.377 26.6905 181.427 27.8455C182.492 28.9855 183.025 30.4255 183.025 32.1655L183.002 32.998ZM177.287 28.2955C176.447 28.2955 175.75 28.543 175.195 29.038C174.64 29.533 174.295 30.193 174.16 31.018H180.37C180.25 30.193 179.92 29.533 179.38 29.038C178.84 28.543 178.142 28.2955 177.287 28.2955Z" fill="#212337"/>
<defs>
<clipPath id="clip0_550_12883">
<rect width="21.2109" height="27" fill="white" transform="translate(44.7446 18.5605)"/>
</clipPath>
</defs>
</svg>
