<svg width="22" height="28" viewBox="0 0 22 28" fill="none" xmlns="http://www.w3.org/2000/svg">
<g clip-path="url(#clip0_550_12885)">
<path d="M20.0225 23.6133C18.9426 25.2002 17.8262 26.7775 16.0637 26.8103C14.3283 26.8431 13.772 25.7768 11.7926 25.7768C9.81037 25.7768 9.18947 26.7775 7.55141 26.8431C5.84972 26.9077 4.55489 25.1298 3.46638 23.5496C1.24309 20.3198 -0.453777 14.4164 1.82832 10.4326C2.95925 8.45519 4.98393 7.20278 7.17925 7.17C8.85009 7.13915 10.4293 8.30285 11.4504 8.30285C12.4723 8.30285 14.39 6.90486 16.4041 7.11022C17.2477 7.1459 19.6146 7.45249 21.1351 9.68831C21.0155 9.76737 18.3102 11.3495 18.3429 14.6459C18.3757 18.5834 21.7752 19.8917 21.8138 19.91C21.7839 20.0026 21.271 21.7785 20.0225 23.6123V23.6133ZM12.6199 2.78513C13.5531 1.68602 15.1295 0.868432 16.4311 0.813477C16.5979 2.34066 15.9866 3.86978 15.0842 4.97081C14.1798 6.06992 12.6989 6.928 11.2469 6.81231C11.0493 5.31886 11.7811 3.76179 12.6199 2.78513Z" fill="#212337"/>
</g>
<defs>
<clipPath id="clip0_550_12885">
<rect width="21.2109" height="27" fill="white" transform="translate(0.744629 0.560547)"/>
</clipPath>
</defs>
</svg>
