<svg width="18" height="16" viewBox="0 0 18 16" fill="none" xmlns="http://www.w3.org/2000/svg">
<path d="M18.0001 8.45183C18.0001 8.65075 17.9211 8.84151 17.7804 8.98216C17.6398 9.12282 17.449 9.20183 17.2501 9.20183H2.56041L8.03073 14.6712C8.10041 14.7409 8.15569 14.8236 8.1934 14.9147C8.23111 15.0057 8.25052 15.1033 8.25052 15.2018C8.25052 15.3004 8.23111 15.398 8.1934 15.489C8.15569 15.5801 8.10041 15.6628 8.03073 15.7325C7.96104 15.8021 7.87832 15.8574 7.78727 15.8951C7.69623 15.9328 7.59865 15.9523 7.5001 15.9523C7.40156 15.9523 7.30397 15.9328 7.21293 15.8951C7.12188 15.8574 7.03916 15.8021 6.96948 15.7325L0.219477 8.98246C0.149744 8.9128 0.0944251 8.83009 0.0566819 8.73904C0.0189387 8.64799 -0.000488281 8.55039 -0.000488281 8.45183C-0.000488281 8.35327 0.0189387 8.25568 0.0566819 8.16463C0.0944251 8.07358 0.149744 7.99086 0.219477 7.92121L6.96948 1.17121C7.11021 1.03048 7.30108 0.951416 7.5001 0.951416C7.69912 0.951416 7.89 1.03048 8.03073 1.17121C8.17146 1.31194 8.25052 1.50281 8.25052 1.70183C8.25052 1.90086 8.17146 2.09173 8.03073 2.23246L2.56041 7.70183H17.2501C17.449 7.70183 17.6398 7.78085 17.7804 7.9215C17.9211 8.06216 18.0001 8.25292 18.0001 8.45183Z" fill="#001214"/>
</svg>
