<svg width="28" height="28" viewBox="0 0 28 28" fill="none" xmlns="http://www.w3.org/2000/svg">
<path d="M27.333 14.3241C27.333 6.91613 21.363 0.911133 13.999 0.911133C6.63502 0.911133 0.666016 6.91513 0.666016 14.3241C0.666016 21.0211 5.54102 26.5701 11.916 27.5761V18.2041H8.53002V14.3241H11.915V11.3701C11.915 8.00813 13.905 6.15013 16.951 6.15013C18.409 6.15013 19.936 6.41313 19.936 6.41313V9.71413H18.253C16.598 9.71413 16.082 10.7491 16.082 11.8101V14.3261H19.78L19.189 18.2031H16.082V27.5781C22.457 26.5721 27.332 21.0231 27.332 14.3261L27.333 14.3241Z" fill="#72767F"/>
</svg>
