<svg width="229" height="64" viewBox="0 0 229 64" fill="none" xmlns="http://www.w3.org/2000/svg">
<rect x="0.350098" y="0.560547" width="228.3" height="63" rx="28.82" fill="#EEEBF4"/>
<g clip-path="url(#clip0_550_12891)">
<path d="M32.6265 20.2267C32.343 20.5093 32.2485 20.9817 32.2485 21.5487V42.4278C32.2485 42.9947 32.4375 43.4672 32.721 43.7506L32.8146 43.8451L44.5227 32.1304V31.9414L32.6265 20.2258V20.2267ZM48.3936 36.098L44.5227 32.2249V31.9414L48.3927 28.0674L48.4881 28.1619L53.1141 30.8076C54.4362 31.5635 54.4362 32.7918 53.1141 33.5468L48.3936 36.098Z" fill="#212337"/>
<path d="M44.5227 31.9414V32.1304L32.8146 43.8451L32.721 43.7506C32.4375 43.4672 32.2485 42.9947 32.2485 42.4278V21.5487C32.2485 20.9817 32.343 20.5093 32.6265 20.2267V20.2258L44.5227 31.9414ZM44.5227 31.9414V32.2249L48.3936 36.098L53.1141 33.5468C54.4362 32.7918 54.4362 31.5635 53.1141 30.8076L48.4881 28.1619L48.3927 28.0674L44.5227 31.9414Z" stroke="#E8E9EB" stroke-width="1.51721" stroke-linecap="round" stroke-linejoin="round"/>
<path d="M48.3906 36.0034L44.4252 32.0349L32.6235 43.8459C33.0951 44.3183 33.7557 44.3183 34.6062 43.9404L48.3906 36.0034ZM48.3906 28.0682L34.6062 20.2266C33.7557 19.7542 33.0951 19.8487 32.6235 20.3211L44.4252 32.0367L48.3906 28.0682Z" fill="#212337" stroke="#E8E9EB" stroke-width="1.51721" stroke-linecap="round" stroke-linejoin="round"/>
</g>
<path d="M83.7831 29.3305V38.0605H81.3306V35.7655C80.8206 36.5605 80.1006 37.1905 79.1706 37.6555C78.2556 38.1055 77.1906 38.3305 75.9756 38.3305C73.6806 38.3305 71.7981 37.5655 70.3281 36.0355C68.8731 34.4905 68.1456 32.4955 68.1456 30.0505C68.1456 27.6055 68.8881 25.6105 70.3731 24.0655C71.8731 22.5205 73.7931 21.748 76.1331 21.748C78.0831 21.748 79.7406 22.273 81.1056 23.323C82.4856 24.373 83.3631 25.8055 83.7381 27.6205H80.7906C80.5056 26.5855 79.9431 25.783 79.1031 25.213C78.2781 24.643 77.2881 24.358 76.1331 24.358C74.5431 24.358 73.2906 24.8755 72.3756 25.9105C71.4756 26.9305 71.0256 28.3105 71.0256 30.0505C71.0256 31.7905 71.4831 33.2005 72.3981 34.2805C73.3281 35.3455 74.5731 35.878 76.1331 35.878C77.5131 35.878 78.6531 35.5255 79.5531 34.8205C80.4531 34.1005 80.9856 33.0955 81.1506 31.8055H76.8756V29.3305H83.7831ZM92.2559 38.3305C90.4559 38.3305 88.9934 37.738 87.8684 36.553C86.7584 35.368 86.2034 33.928 86.2034 32.233C86.2034 30.538 86.7584 29.098 87.8684 27.913C88.9934 26.713 90.4559 26.113 92.2559 26.113C94.0709 26.113 95.5334 26.713 96.6434 27.913C97.7684 29.098 98.3309 30.538 98.3309 32.233C98.3309 33.928 97.7684 35.368 96.6434 36.553C95.5334 37.738 94.0709 38.3305 92.2559 38.3305ZM88.8809 32.233C88.8809 33.343 89.1959 34.243 89.8259 34.933C90.4709 35.623 91.2809 35.968 92.2559 35.968C93.2459 35.968 94.0559 35.623 94.6859 34.933C95.3309 34.243 95.6534 33.343 95.6534 32.233C95.6534 31.108 95.3309 30.2005 94.6859 29.5105C94.0559 28.8205 93.2459 28.4755 92.2559 28.4755C91.2809 28.4755 90.4709 28.8205 89.8259 29.5105C89.1959 30.2005 88.8809 31.108 88.8809 32.233ZM106.099 38.3305C104.299 38.3305 102.836 37.738 101.711 36.553C100.601 35.368 100.046 33.928 100.046 32.233C100.046 30.538 100.601 29.098 101.711 27.913C102.836 26.713 104.299 26.113 106.099 26.113C107.914 26.113 109.376 26.713 110.486 27.913C111.611 29.098 112.174 30.538 112.174 32.233C112.174 33.928 111.611 35.368 110.486 36.553C109.376 37.738 107.914 38.3305 106.099 38.3305ZM102.724 32.233C102.724 33.343 103.039 34.243 103.669 34.933C104.314 35.623 105.124 35.968 106.099 35.968C107.089 35.968 107.899 35.623 108.529 34.933C109.174 34.243 109.496 33.343 109.496 32.233C109.496 31.108 109.174 30.2005 108.529 29.5105C107.899 28.8205 107.089 28.4755 106.099 28.4755C105.124 28.4755 104.314 28.8205 103.669 29.5105C103.039 30.2005 102.724 31.108 102.724 32.233ZM123.159 28.048V26.383H125.634V37.5655C125.634 39.1555 125.139 40.453 124.149 41.458C123.174 42.478 121.809 42.988 120.054 42.988C118.449 42.988 117.189 42.5755 116.274 41.7505C115.374 40.9255 114.849 39.9805 114.699 38.9155H117.376C117.706 40.1005 118.614 40.693 120.099 40.693C120.999 40.693 121.696 40.438 122.191 39.928C122.701 39.433 122.956 38.7655 122.956 37.9255V36.103C122.176 37.303 120.946 37.903 119.266 37.903C117.646 37.903 116.341 37.3405 115.351 36.2155C114.376 35.0755 113.889 33.673 113.889 32.008C113.889 30.343 114.376 28.948 115.351 27.823C116.341 26.683 117.646 26.113 119.266 26.113C121.051 26.113 122.349 26.758 123.159 28.048ZM123.069 32.008C123.069 30.973 122.769 30.1255 122.169 29.4655C121.569 28.8055 120.781 28.4755 119.806 28.4755C118.846 28.4755 118.066 28.8055 117.466 29.4655C116.866 30.1255 116.566 30.973 116.566 32.008C116.566 33.028 116.866 33.8755 117.466 34.5505C118.066 35.2105 118.846 35.5405 119.806 35.5405C120.781 35.5405 121.569 35.2105 122.169 34.5505C122.769 33.8755 123.069 33.028 123.069 32.008ZM131.46 38.0605H128.782V21.1855H131.46V38.0605ZM145.448 32.998H136.56C136.665 33.928 137.003 34.6705 137.573 35.2255C138.143 35.7655 138.893 36.0355 139.823 36.0355C140.438 36.0355 140.993 35.8855 141.488 35.5855C141.983 35.2855 142.335 34.8805 142.545 34.3705H145.245C144.885 35.5555 144.21 36.5155 143.22 37.2505C142.245 37.9705 141.09 38.3305 139.755 38.3305C138.015 38.3305 136.605 37.753 135.525 36.598C134.46 35.443 133.928 33.9805 133.928 32.2105C133.928 30.4855 134.468 29.038 135.548 27.868C136.628 26.698 138.023 26.113 139.733 26.113C141.443 26.113 142.823 26.6905 143.873 27.8455C144.938 28.9855 145.47 30.4255 145.47 32.1655L145.448 32.998ZM139.733 28.2955C138.893 28.2955 138.195 28.543 137.64 29.038C137.085 29.533 136.74 30.193 136.605 31.018H142.815C142.695 30.193 142.365 29.533 141.825 29.038C141.285 28.543 140.588 28.2955 139.733 28.2955ZM156.758 29.2405H160.673C161.543 29.2405 162.188 29.038 162.608 28.633C163.043 28.228 163.26 27.6655 163.26 26.9455C163.26 26.2255 163.043 25.6555 162.608 25.2355C162.173 24.8155 161.528 24.6055 160.673 24.6055H156.758V29.2405ZM156.758 31.7605V38.0605H154.035V22.0855H160.65C162.465 22.0855 163.808 22.5355 164.678 23.4355C165.563 24.3205 166.005 25.4905 166.005 26.9455C166.005 28.3855 165.555 29.548 164.655 30.433C163.755 31.318 162.42 31.7605 160.65 31.7605H156.758ZM170.901 38.0605H168.223V21.1855H170.901V38.0605ZM181.334 32.5705L178.229 33.043C176.774 33.268 176.046 33.823 176.046 34.708C176.046 35.728 176.736 36.238 178.116 36.238C179.151 36.238 179.946 35.9605 180.501 35.4055C181.056 34.8505 181.334 34.153 181.334 33.313V32.5705ZM177.576 38.3305C176.196 38.3305 175.169 38.008 174.494 37.363C173.819 36.718 173.481 35.863 173.481 34.798C173.481 32.758 174.974 31.528 177.959 31.108L181.334 30.6355V30.4555C181.334 29.0305 180.501 28.318 178.836 28.318C177.381 28.318 176.556 28.8955 176.361 30.0505H173.751C173.871 28.9105 174.344 27.973 175.169 27.238C176.009 26.488 177.254 26.113 178.904 26.113C180.569 26.113 181.821 26.4955 182.661 27.2605C183.516 28.0255 183.944 29.098 183.944 30.478V35.8555C183.944 36.8005 184.056 37.5355 184.281 38.0605H181.739C181.724 38.0605 181.701 38.008 181.671 37.903C181.656 37.783 181.634 37.5955 181.604 37.3405C181.589 37.0855 181.581 36.8155 181.581 36.5305C180.786 37.7305 179.451 38.3305 177.576 38.3305ZM187.741 42.7405L189.721 37.9705L185.019 26.383H187.876L191.049 34.843L194.266 26.383H197.056L190.396 42.7405H187.741Z" fill="#212337"/>
<defs>
<clipPath id="clip0_550_12891">
<rect width="24.3" height="27" fill="white" transform="translate(31.3501 18.5605)"/>
</clipPath>
</defs>
</svg>
