<svg width="25" height="28" viewBox="0 0 25 28" fill="none" xmlns="http://www.w3.org/2000/svg">
<g clip-path="url(#clip0_550_12894)">
<path d="M1.62654 2.22673C1.34304 2.50929 1.24854 2.98173 1.24854 3.54866V24.4278C1.24854 24.9947 1.43754 25.4672 1.72104 25.7506L1.81464 25.8451L13.5227 14.1304V13.9414L1.62654 2.22583V2.22673ZM17.3936 18.098L13.5227 14.2249V13.9414L17.3927 10.0674L17.4881 10.1619L22.1141 12.8076C23.4362 13.5635 23.4362 14.7918 22.1141 15.5468L17.3936 18.098Z" fill="#212337"/>
<path d="M13.5227 13.9414V14.1304L1.81464 25.8451L1.72104 25.7506C1.43754 25.4672 1.24854 24.9947 1.24854 24.4278V3.54866C1.24854 2.98173 1.34304 2.50929 1.62654 2.22673V2.22583L13.5227 13.9414ZM13.5227 13.9414V14.2249L17.3936 18.098L22.1141 15.5468C23.4362 14.7918 23.4362 13.5635 22.1141 12.8076L17.4881 10.1619L17.3927 10.0674L13.5227 13.9414Z" stroke="#E8E9EB" stroke-width="1.51721" stroke-linecap="round" stroke-linejoin="round"/>
<path d="M17.3906 18.0034L13.4252 14.0349L1.62354 25.8459C2.09514 26.3183 2.75574 26.3183 3.60624 25.9404L17.3906 18.0034ZM17.3906 10.0682L3.60624 2.22662C2.75574 1.75418 2.09514 1.84867 1.62354 2.32111L13.4252 14.0367L17.3906 10.0682Z" fill="#212337" stroke="#E8E9EB" stroke-width="1.51721" stroke-linecap="round" stroke-linejoin="round"/>
</g>
<defs>
<clipPath id="clip0_550_12894">
<rect width="24.3" height="27" fill="white" transform="translate(0.350098 0.560547)"/>
</clipPath>
</defs>
</svg>
