<svg width="27" height="27" viewBox="0 0 27 27" fill="none" xmlns="http://www.w3.org/2000/svg">
<path d="M13.5002 10.0415C12.8666 10.0415 12.2473 10.2293 11.7205 10.5813C11.1937 10.9333 10.7831 11.4336 10.5407 12.0189C10.2982 12.6043 10.2348 13.2483 10.3584 13.8697C10.482 14.4911 10.7871 15.0619 11.2351 15.5099C11.6831 15.9579 12.2538 16.263 12.8752 16.3866C13.4966 16.5102 14.1407 16.4467 14.726 16.2043C15.3114 15.9618 15.8117 15.5513 16.1636 15.0245C16.5156 14.4977 16.7035 13.8784 16.7035 13.2448C16.7035 12.8241 16.6206 12.4076 16.4597 12.0189C16.2987 11.6303 16.0627 11.2771 15.7653 10.9797C15.4678 10.6822 15.1147 10.4463 14.726 10.2853C14.3374 10.1243 13.9208 10.0415 13.5002 10.0415ZM26.3264 6.87687C26.3196 5.8794 26.1359 4.89103 25.7839 3.95771C25.5247 3.27475 25.1235 2.65454 24.607 2.13799C24.0904 1.62144 23.4702 1.2203 22.7872 0.961042C21.8539 0.609016 20.8656 0.425337 19.8681 0.418542C18.2018 0.328125 17.711 0.328125 13.5002 0.328125C9.28933 0.328125 8.7985 0.328125 7.13225 0.418542C6.13477 0.425337 5.1464 0.609016 4.21308 0.961042C3.53012 1.2203 2.90991 1.62144 2.39336 2.13799C1.87681 2.65454 1.47567 3.27475 1.21641 3.95771C0.864387 4.89103 0.680708 5.8794 0.673913 6.87687C0.583496 8.54313 0.583496 9.03396 0.583496 13.2448C0.583496 17.4556 0.583496 17.9465 0.673913 19.6127C0.687816 20.6137 0.871246 21.6051 1.21641 22.5448C1.47452 23.2246 1.87533 23.8412 2.39183 24.3531C2.90616 24.8728 3.52771 25.2739 4.21308 25.5285C5.1464 25.8806 6.13477 26.0642 7.13225 26.071C8.7985 26.1615 9.28933 26.1615 13.5002 26.1615C17.711 26.1615 18.2018 26.1615 19.8681 26.071C20.8656 26.0642 21.8539 25.8806 22.7872 25.5285C23.4726 25.2739 24.0942 24.8728 24.6085 24.3531C25.125 23.8412 25.5258 23.2246 25.7839 22.5448C26.1356 21.6069 26.3192 20.6144 26.3264 19.6127C26.4168 17.9465 26.4168 17.4556 26.4168 13.2448C26.4168 9.03396 26.4168 8.54313 26.3264 6.87687ZM23.0456 17.2102C23.0041 18.0073 22.834 18.7924 22.5418 19.5352C22.2911 20.1548 21.9183 20.7176 21.4457 21.1903C20.973 21.6629 20.4102 22.0357 19.7906 22.2865C19.0408 22.5623 18.2513 22.715 17.4527 22.7385C16.4322 22.7385 16.161 22.7385 13.5002 22.7385C10.8393 22.7385 10.5681 22.7385 9.54766 22.7385C8.74906 22.715 7.95954 22.5623 7.20975 22.2865C6.56921 22.0484 5.99077 21.6687 5.51766 21.1756C5.04965 20.7122 4.68821 20.1525 4.4585 19.5352C4.18151 18.7862 4.03303 17.9958 4.01933 17.1973C4.01933 16.1769 4.01933 15.9056 4.01933 13.2448C4.01933 10.584 4.01933 10.3127 4.01933 9.29229C4.03303 8.49382 4.18151 7.70339 4.4585 6.95437C4.69653 6.31384 5.07627 5.7354 5.56933 5.26229C6.03476 4.79681 6.59396 4.43575 7.20975 4.20312C7.95954 3.92723 8.74906 3.77456 9.54766 3.75104C10.5681 3.75104 10.8393 3.75104 13.5002 3.75104C16.161 3.75104 16.4322 3.75104 17.4527 3.75104C18.2513 3.77456 19.0408 3.92723 19.7906 4.20312C20.4311 4.44115 21.0096 4.8209 21.4827 5.31396C21.9507 5.77734 22.3121 6.33713 22.5418 6.95437C22.8177 7.70417 22.9704 8.49369 22.9939 9.29229C22.9939 10.3127 22.9939 10.584 22.9939 13.2448C22.9939 15.9056 23.0843 16.1769 23.0456 17.1973V17.2102ZM20.9789 7.60021C20.8251 7.18298 20.5826 6.80408 20.2682 6.48965C19.9538 6.17522 19.5749 5.93275 19.1577 5.77896C18.5848 5.58038 17.9814 5.48419 17.3752 5.49479C16.3677 5.49479 16.0835 5.49479 13.5002 5.49479C10.9168 5.49479 10.6327 5.49479 9.62516 5.49479C9.01584 5.50075 8.41238 5.61444 7.84266 5.83063C7.43182 5.97743 7.05693 6.21 6.74292 6.51288C6.4289 6.81576 6.18295 7.18202 6.02141 7.58729C5.83383 8.16256 5.74219 8.76477 5.75016 9.36979C5.75016 10.3773 5.75016 10.6615 5.75016 13.2448C5.75016 15.8281 5.75016 16.1123 5.75016 17.1198C5.76297 17.7284 5.87645 18.3307 6.086 18.9023C6.23979 19.3195 6.48226 19.6984 6.79669 20.0128C7.11112 20.3273 7.49002 20.5698 7.90725 20.7235C8.45836 20.9262 9.0383 21.0396 9.62516 21.0594C10.6327 21.0594 10.9168 21.0594 13.5002 21.0594C16.0835 21.0594 16.3677 21.0594 17.3752 21.0594C17.9845 21.0534 18.5879 20.9397 19.1577 20.7235C19.5749 20.5698 19.9538 20.3273 20.2682 20.0128C20.5826 19.6984 20.8251 19.3195 20.9789 18.9023C21.1951 18.3326 21.3088 17.7291 21.3147 17.1198C21.3147 16.1123 21.3147 15.8281 21.3147 13.2448C21.3147 10.6615 21.3147 10.3773 21.3147 9.36979C21.3151 8.75986 21.2012 8.15527 20.9789 7.58729V7.60021ZM13.5002 18.179C12.8528 18.179 12.2118 18.0512 11.6139 17.8031C11.016 17.555 10.4729 17.1913 10.0157 16.733C9.55859 16.2746 9.19636 15.7306 8.94981 15.132C8.70325 14.5335 8.57721 13.8921 8.57891 13.2448C8.57892 12.2684 8.86863 11.3139 9.41138 10.5022C9.95412 9.69048 10.7255 9.05807 11.6279 8.68499C12.5302 8.31192 13.523 8.21496 14.4804 8.4064C15.4379 8.59783 16.3171 9.06905 17.0066 9.7604C17.6962 10.4517 18.1651 11.3321 18.354 12.2901C18.5429 13.2481 18.4434 14.2406 18.0679 15.142C17.6925 16.0434 17.0581 16.8131 16.2449 17.3537C15.4318 17.8943 14.4766 18.1815 13.5002 18.179ZM18.6668 9.27938C18.3813 9.24915 18.1171 9.11433 17.925 8.90088C17.733 8.68743 17.6267 8.41046 17.6267 8.12333C17.6267 7.83621 17.733 7.55924 17.925 7.34579C18.1171 7.13234 18.3813 6.99752 18.6668 6.96729C18.9524 6.99752 19.2166 7.13234 19.4087 7.34579C19.6007 7.55924 19.707 7.83621 19.707 8.12333C19.707 8.41046 19.6007 8.68743 19.4087 8.90088C19.2166 9.11433 18.9524 9.24915 18.6668 9.27938Z" fill="#72767F"/>
</svg>
