<svg width="136" height="387" viewBox="0 0 136 387" fill="none" xmlns="http://www.w3.org/2000/svg">
<path fill-rule="evenodd" clip-rule="evenodd" d="M0.00164635 76.9214V115.251C1.88347 115.971 5.26763 120.578 6.46785 122.451L9.87836 129.392C10.1986 130.388 10.3501 131.039 10.6867 131.933C11.6655 134.532 15.6292 151.106 15.9931 153.896C16.2038 155.507 16.4606 155.153 16.7965 156.631C17.7226 160.696 19.341 163.878 21.4171 167.293C21.8304 167.972 21.5859 167.55 21.9629 168.386C23.7492 172.349 27.3771 177.139 30.3513 180.329C33.3181 183.51 36.3071 185.262 37.6003 186.543C36.9484 187.692 31.8841 190.629 30.655 192.701C30.0335 193.84 29.9364 193.396 29.1338 194.306C24.346 199.728 22.1275 205.036 20.6063 206.898C20.1049 207.511 19.6209 209.514 18.8035 211.097C16.757 215.062 14.9978 224.811 13.6585 229.849C13.2617 231.341 13.0444 233.205 12.5612 234.778L10.0842 242.743C9.98455 243.035 9.90553 243.394 9.75488 243.804C9.30048 245.033 8.46987 246.916 7.86153 247.9C7.4524 248.563 7.24413 249.063 6.83829 249.869C6.0011 251.53 2.05141 257.279 0.00246957 257.914V296.439C1.53855 296.359 2.11808 295.98 3.56362 295.787C4.95811 295.601 6.35672 295.646 7.73064 295.416C10.3887 294.971 17.0229 295.627 18.8561 296.376C20.9331 297.225 21.7752 297.039 25.0886 298.604C25.4928 298.795 25.3306 298.716 25.8385 298.917C32.55 301.573 42.8474 309.477 48.5019 313.946C54.545 318.721 58.2173 322.171 65.5948 325.7L68.9575 327.522C76.3605 331.256 85.8043 334.711 95.8777 334.887C95.9592 336.715 94.5104 338.13 94.8092 340.477C94.9533 341.606 94.3671 344.301 94.7787 348.47C94.903 349.725 94.9121 350.983 95.0496 352.292C95.2241 353.958 95.667 354.157 95.6925 356.354C95.9008 358.639 97.4393 362.426 98.1398 364.634L100.677 370.398C101.031 371.156 101.326 371.646 101.628 372.242L102.481 374.153C102.97 374.959 103.042 374.69 103.612 375.72L105.578 379.264C106.06 380.268 107.003 381.712 107.647 382.664C108.187 383.462 109.283 385.367 109.616 386.308H134.621C134.428 385.847 133.486 384.711 132.984 384.202L122.725 373.613C121.752 372.904 121.468 372.058 120.036 370.802L118.548 369.295C115.825 366.809 109.489 358.709 108.995 355.512C108.883 354.78 108.997 354.61 108.959 354.028C108.923 353.467 108.976 353.967 108.821 353.929C108.552 352.209 108.174 352.02 108.202 350.099C108.226 348.462 108.232 344.48 108.762 342.979C108.785 342.914 108.822 342.85 108.846 342.783C108.869 342.714 108.902 342.648 108.923 342.576C109.276 341.394 109.066 340.196 109.414 339.006C109.432 338.94 109.464 338.873 109.485 338.808L110.376 335.846C110.775 334.549 110.873 333.919 110.997 332.335C111.376 327.52 112.17 330.998 110.938 325.592C109.581 325.285 108.757 324.774 107.528 324.66C105.775 324.499 105.365 324.495 103.891 324.195C97.6682 322.93 90.3252 323.233 82.4752 320.89C80.6313 320.339 76.6231 319.061 74.9883 317.599C74.0893 316.796 74.8697 317.217 73.9757 316.77C72.2092 315.885 72.0527 315.488 70.3339 314.035C70.2878 313.996 70.2269 313.944 70.18 313.906C70.1339 313.869 70.0688 313.819 70.0219 313.783C68.5616 312.657 69.6144 313.572 68.2685 312.015L66.6657 310.066C66.6246 310.029 66.5604 309.979 66.5184 309.942C65.198 308.78 58.0699 300.019 57.0385 298.252C56.5906 297.485 56.8047 297.769 56.2449 297.14L51.5313 291.414C51.1337 290.961 51.1773 290.892 50.6529 290.389L44.3876 284.298C44.0427 284.009 44.0838 284.024 43.7932 283.771C43.4697 283.49 43.4788 283.505 43.1948 283.279L31.2313 274.692C30.4377 274.245 30.5719 274.329 30.194 273.592C28.6868 273.698 29.9784 272.755 26.5432 272.504C26.3341 270.435 26.2797 271.021 27.1721 269.716C27.7648 268.848 27.7425 268.006 28.2225 266.881C29.0992 264.826 29.7824 263.501 30.1858 261.132C30.5291 259.113 30.6723 260.051 31.0995 258.282L32.69 248.621C32.4982 244.12 32.8669 239.525 32.4553 234.531C32.3936 233.785 32.4315 233.964 32.2545 233.336C32.052 232.618 32.1302 233.572 31.9631 232.33C31.7589 230.811 31.9557 228.484 31.9557 226.882C31.9565 222.402 31.3975 215.19 33.0406 211.059C33.6852 209.439 33.9338 208.115 35.1266 207.476C35.2271 206.659 35.4394 206.798 35.9712 206.06C38.2441 202.913 41.1919 200.084 44.3901 197.725L54.6693 189.267C55.0208 188.043 54.8002 188.324 56.1313 187.917L56.0794 185.173L45.7952 176.702C44.3086 175.237 42.7659 174.758 39.0113 170.847C34.501 166.147 36.1482 168.084 34.7611 165.492C32.3508 160.989 33.3963 162.269 32.4183 158.732C31.6107 155.812 32.7064 150.682 32.7962 147.317C32.9048 143.243 32.7739 139.405 32.8019 135.233C32.8686 125.447 33.2135 126.507 31.768 117.425L30.5315 112.626C30.2525 109.481 26.6675 102.436 26.4839 101.756L31.7449 98.6415C35.8568 96.3382 34.5323 96.8469 36.8883 95.2771C40.6042 92.8009 41.0363 92.1168 44.1414 89.662C44.7942 89.1459 44.8008 89.006 45.275 88.5894C45.5442 88.3532 46.0216 88.0272 46.3624 87.7399C48.5579 85.8901 54.5606 79.172 56.5083 76.5304C56.8648 76.0472 57.0508 75.6669 57.4138 75.1713L60.0604 71.8028C60.8318 70.8849 60.3881 71.1747 60.8812 70.41L67.7515 62.4924C68.5048 61.7442 69.0506 61.1976 69.8046 60.4345C74.8985 55.2771 79.1783 53.3031 86.4118 51.7547C87.9396 51.427 88.0796 51.1941 89.9984 51.0401L108.565 48.7903L111.503 47.1514C112.001 44.6604 111.104 41.0087 110.712 37.8484C110.652 37.3635 109.41 33.8065 108.945 29.9235C108.65 27.4662 107.991 23.4326 108.747 20.8947C109.111 19.6689 109.666 14.6145 111.57 13.6555C111.919 13.3303 112.419 12.4322 112.729 11.9877C114.678 9.18799 113.953 9.83502 116.635 6.83694C117.741 5.59967 118.673 4.64642 119.576 3.72032C121.105 2.15296 121.961 1.65903 122.235 0.502441H102.367C101.894 2.78846 101.606 1.17087 100.932 3.78452C100.618 5.00285 100.351 4.74848 99.4882 6.68628L97.1463 13.141C96.6359 14.6869 96.3889 16.0205 95.9715 17.7015C95.4077 19.9752 95.6768 20.2608 95.0043 22.7032C94.1844 25.6807 94.9121 33.2583 95.8505 36.2275C96.1683 37.2327 96.5461 37.2096 96.0423 38.6156C93.2665 38.991 90.7706 38.7333 88.1907 39.587C86.7229 40.0727 84.9753 39.8183 81.2948 41.1906C80.6906 41.4161 80.1151 41.5191 79.5735 41.696C75.1439 43.1424 70.4294 45.1699 66.348 47.614C65.3577 48.2067 64.3847 48.4207 63.4026 49.0924C61.515 50.3832 60.3033 50.6615 59.0001 51.8115L48.5777 59.7792C47.8187 60.4287 46.9247 61.0823 46.1385 61.7334C45.8199 61.9969 45.2799 62.3994 44.9021 62.6867C44.721 62.8242 44.4699 63.0086 44.2847 63.16L39.6855 66.5319C36.5219 68.8187 31.6708 72.1337 28.2513 73.7488L21.9135 76.2505C18.9195 77.1783 14.6776 78.269 11.2654 78.367C9.69808 78.4122 8.74152 78.3645 7.36596 78.1455C5.88256 77.9093 4.82476 77.822 3.27468 77.7076C1.36157 77.566 2.37163 77.0416 0 76.9214H0.00164635Z" fill="#3568FF"/>
<path fill-rule="evenodd" clip-rule="evenodd" d="M0.000823215 296.436V310.272C1.91311 310.19 1.92052 309.81 3.33724 309.523C7.62115 308.653 10.7616 308.741 15.0233 309.245C20.1379 309.849 23.7089 311.665 27.9492 313.404C29.1123 313.882 29.4219 314.298 30.6023 314.861C32.5953 315.812 35.5753 318.147 36.8866 318.949C37.6777 319.433 37.4843 319.175 38.249 319.783L45.5088 325.146C46.355 325.94 46.6851 326.407 47.8722 327.158L57.3085 334.492C61.2722 337.255 60.0596 336.161 62.6132 337.717C63.4084 338.202 64.2867 338.75 65.1577 339.258L73.686 343.36C74.4129 343.714 75.8987 344.199 76.6602 344.468C80.3761 345.785 89.9976 348.881 94.0486 348.413C94.2 346.257 94.014 344.614 94.2848 342.344L94.8067 340.473C94.5087 338.127 95.9567 336.711 95.8752 334.884C85.8018 334.708 76.3581 331.253 68.9551 327.519L65.5923 325.696C58.2156 322.167 54.5425 318.718 48.4995 313.943C42.8449 309.474 32.5476 301.57 25.836 298.913C25.3289 298.713 25.4903 298.792 25.0861 298.601C21.7736 297.035 20.9306 297.221 18.8537 296.372C17.0204 295.623 10.3871 294.967 7.72817 295.412C6.35343 295.643 4.95482 295.598 3.56115 295.784C2.11562 295.976 1.53608 296.354 0 296.436L0.000823215 296.436Z" fill="#02144A"/>
<path fill-rule="evenodd" clip-rule="evenodd" d="M0 357.296L8.6411 361.494C11.4301 362.728 14.5138 364.039 17.646 365.1C22.5037 366.746 27.7508 368.332 33.0522 368.856C34.943 369.043 36.9656 369.063 38.7824 369.456C38.6779 370.866 37.7008 373.56 37.3962 375.494C36.9879 378.088 36.9714 379.771 36.8232 382.633L36.8924 386.304H55.97L58.0897 374.414C58.4033 372.375 58.3935 362.998 58.1728 360.801C57.725 356.335 53.8173 356.623 48.8946 356.002C45.0684 355.52 40.7968 354.758 36.7631 354.44C8.3291 352.192 3.99003 337.754 0.00164643 335.743V357.295L0 357.296Z" fill="#FFC73C"/>
<path fill-rule="evenodd" clip-rule="evenodd" d="M108.565 48.787L89.9989 51.0368C88.0792 51.1907 87.9401 51.4237 86.4123 51.7514C79.1788 53.3006 74.899 55.2746 69.8051 60.4311C69.051 61.1942 68.5053 61.7417 67.752 62.4891L60.8816 70.4067C60.3885 71.1714 60.8314 70.8816 60.0609 71.7995L57.4143 75.168C57.0513 75.6636 56.8653 76.0439 56.5088 76.5271C54.5603 79.1679 48.5584 85.886 46.3629 87.7366C46.0221 88.0239 45.5447 88.3499 45.2755 88.5861C44.8013 89.0027 44.7947 89.1426 44.1419 89.6587C41.0377 92.1135 40.6055 92.7976 36.8888 95.2737C34.5328 96.8436 35.8573 96.3349 31.7454 98.6382L26.4844 101.753C26.6671 102.433 30.253 109.478 30.532 112.623C31.9249 112.455 32.8296 111.863 33.7367 111.059L42.9821 104.401C44.0637 103.462 44.7042 103.358 45.4023 102.445C46.288 101.285 45.5908 102.058 46.6807 101.225L51.1177 96.5728C51.7631 95.6006 52.4966 95.2186 53.3206 94.4102L59.2245 86.6006C60.7639 84.3203 61.4118 83.9803 62.6145 82.3422L65.0865 79.0255C65.5319 78.4707 65.7253 78.5456 66.2374 77.9875L68.1999 75.5565C68.2386 75.5129 68.2904 75.4496 68.3308 75.4076C68.6798 75.0388 69.1646 74.7169 69.5285 74.4016L71.882 72.0983C72.6986 71.327 73.5712 71.0899 74.4726 70.3038C76.0383 68.9397 76.8953 68.7471 78.81 67.7856C79.3147 67.532 78.8668 67.6926 79.5921 67.4382L83.8439 65.9663C86.5086 64.9612 96.0996 64.1034 99.5818 63.6284C100.81 63.4605 102.144 63.2522 103.469 63.1238L109.555 62.2636C110.852 61.8059 111.597 61.0033 111.572 57.3013C111.552 54.244 111.61 51.1224 111.541 48.0815C110.03 48.3227 111.06 48.2627 110.142 48.5491C109.307 48.8093 109.421 48.7566 108.567 48.7879L108.565 48.787Z" fill="#02144A"/>
<path fill-rule="evenodd" clip-rule="evenodd" d="M0 16.6791V38.5868C0.754048 38.0748 3.97028 34.3474 4.99845 33.2056C16.6236 20.2979 27.7887 20.67 43.515 18.4284C46.7156 17.9724 55.0414 17.3204 57.0591 16.1177C58.6305 15.1817 58.5103 14.2927 58.4107 11.926L56.4342 0.5H38.3009C38.347 2.19249 38.8977 2.76215 39.1191 4.19122C29.7232 5.04323 21.4492 7.10532 13.2197 10.4129L0 16.6791Z" fill="#FFC73C"/>
<path fill-rule="evenodd" clip-rule="evenodd" d="M0 38.5876V52.2733C0.991129 52.0428 1.19281 50.6647 2.91741 48.9681C9.17535 42.8106 11.9059 39.3236 20.9372 35.9822C26.4427 33.9456 29.7915 34.0584 34.0425 33.3653C35.8741 33.0664 34.4821 32.9034 36.2124 32.7446L47.8664 31.6012C53.1299 29.7901 58.7894 33.2607 58.7343 24.101L58.512 12.1449C58.498 12.0222 58.4519 11.9959 58.4107 11.9268C58.5103 14.2943 58.6314 15.1825 57.0591 16.1185C55.0406 17.3212 46.7156 17.9731 43.515 18.4292C27.7887 20.6708 16.6236 20.2995 4.99845 33.2064C3.97028 34.3482 0.754048 38.0756 0 38.5876Z" fill="#734C06"/>
<path fill-rule="evenodd" clip-rule="evenodd" d="M0.000823216 370.754C0.999361 370.897 2.69185 372.248 3.96287 372.761C7.81872 374.317 11.3774 376.326 16.5817 378.251L25.9603 381.002C27.3754 381.247 29.2819 381.52 30.8262 382.097C32.4891 382.719 34.9216 382.399 36.8232 382.634C36.9714 379.771 36.9879 378.089 37.3962 375.495C37.7008 373.561 38.6779 370.866 38.7824 369.456C36.9656 369.064 34.9431 369.043 33.0522 368.857C27.7508 368.333 22.5046 366.747 17.646 365.101C14.5138 364.04 11.4301 362.729 8.6411 361.495L0 357.297V370.754L0.000823216 370.754Z" fill="#734C06"/>
<path fill-rule="evenodd" clip-rule="evenodd" d="M0 129.035C1.13683 129.365 3.97686 132.373 4.58027 133.391C4.89637 133.924 5.42157 134.58 5.84387 135.141L7.36514 137.75C7.98254 138.599 7.64091 137.835 8.013 138.648L13.1127 154.16C13.2691 155.079 13.2419 156.15 13.4634 156.991L13.9696 159.569C14.1524 160.663 14.4413 160.398 14.6982 161.811C15.4102 165.72 15.9593 167.495 17.0665 171.106C17.6049 172.863 17.4575 173.009 18.0675 174.254L20.4408 179.565C20.7454 180.17 21.0203 180.781 21.3595 181.363L22.5943 183.74C22.6256 183.792 22.6684 183.86 22.6988 183.912C22.7301 183.965 22.768 184.036 22.7993 184.089C22.8297 184.142 22.8651 184.216 22.8956 184.268C23.2314 184.843 22.8931 184.315 23.2018 184.777C23.2331 184.824 23.2808 184.888 23.3129 184.933L28.4974 192.074C29.1642 192.848 29.305 192.933 30.6534 192.699C31.8824 190.627 36.9459 187.69 37.5987 186.541C36.3063 185.26 33.3172 183.508 30.3496 180.327C27.3754 177.138 23.7476 172.347 21.9612 168.384C21.5842 167.548 21.8287 167.97 21.4155 167.291C19.3394 163.875 17.721 160.694 16.7949 156.629C16.4582 155.152 16.2013 155.506 15.9914 153.894C15.6276 151.104 11.6647 134.53 10.6851 131.931C10.3484 131.038 10.1969 130.387 9.87671 129.39L6.46621 122.449C5.26599 120.577 1.88183 115.968 0 115.249V129.033V129.035Z" fill="#02144A"/>
<path fill-rule="evenodd" clip-rule="evenodd" d="M35.1215 207.473C34.9906 208.846 34.7708 208.386 34.8128 209.558C34.9264 212.706 34.0851 215.85 33.6834 218.964C33.5821 219.75 33.5336 220.154 33.3895 220.904C33.3195 221.268 33.2109 221.524 33.2446 221.936C33.3837 223.627 33.3862 222.752 33.7484 223.152L38.8473 216.118C41.1811 214.286 42.2726 212.882 44.6764 211.173L45.2814 210.68C45.9235 210.108 46.1614 209.984 46.7706 209.423C48.1428 208.161 48.1782 208.435 49.8855 207.069C50.6832 206.431 50.4857 206.862 51.2603 205.973C51.6077 205.574 51.4356 205.699 51.8991 205.26L54.9688 202.586C55.0165 202.55 55.0873 202.506 55.1342 202.472C57.2194 200.943 56.0488 192.191 56.1352 189.127L54.6626 189.264L44.3833 197.722C41.1852 200.081 38.2381 202.909 35.9645 206.057C35.4319 206.795 35.2203 206.656 35.1199 207.473H35.1215Z" fill="#02144A"/>
<path fill-rule="evenodd" clip-rule="evenodd" d="M111.571 13.6527C111.281 15.6531 110.597 14.6973 110.881 17.134C111.14 19.3542 110.221 27.2931 110.251 28.5131C112.594 27.228 110.615 27.554 114.071 24.011C114.307 23.769 114.63 23.48 114.847 23.1787C119.028 17.3719 119.321 18.2412 123.249 13.6799C123.288 13.6338 123.338 13.5704 123.377 13.5251L132.533 4.34069C133.313 3.47057 135.218 1.42823 135.474 0.500488H122.235C121.961 1.65708 121.105 2.151 119.576 3.71837C118.673 4.64364 117.742 5.59772 116.635 6.83498C113.953 9.83307 114.678 9.18604 112.729 11.9857C112.419 12.4303 111.918 13.3284 111.57 13.6535L111.571 13.6527Z" fill="#02144A"/>
<path fill-rule="evenodd" clip-rule="evenodd" d="M30.1898 273.589C31.1957 272.723 30.9768 272.094 31.2723 270.749C31.5234 269.61 31.7497 269.096 31.9292 267.834C32.582 263.236 33.8464 252.525 32.6857 248.618L31.0953 258.279C30.6681 260.047 30.5248 259.109 30.1815 261.129C29.7782 263.499 29.0957 264.822 28.2182 266.877C27.7383 268.002 27.7605 268.845 27.1678 269.712C26.2755 271.017 26.3298 270.432 26.5389 272.5C29.9733 272.752 28.6817 273.694 30.1898 273.589V273.589Z" fill="#02144A"/>
<path fill-rule="evenodd" clip-rule="evenodd" d="M101.607 386.305H109.613C109.28 385.363 108.183 383.459 107.644 382.661C107 381.71 106.057 380.265 105.575 379.262L103.609 375.718C103.039 374.687 102.967 374.956 102.478 374.15L101.625 372.239C101.323 371.645 101.028 371.153 100.674 370.396L98.137 364.632C97.4373 362.423 95.8979 358.636 95.6896 356.351L94.952 353.845C94.5116 352.232 94.7932 352.068 94.1363 351.713C94.1437 354.314 94.0482 362.155 94.5133 364.302C94.7825 365.545 94.8195 364.442 95.064 366.263C95.3274 368.232 95.5332 371.208 96.265 373.219L96.5705 374.024C97.5204 377.519 97.2183 375.554 97.7155 377.239C97.9419 378.006 97.9863 378.35 98.3025 379.166C98.7091 380.213 99.3693 381.801 99.8599 382.792C100.118 383.314 100.027 383.158 100.347 383.634L101.608 386.305H101.607Z" fill="#02144A"/>
</svg>
