<svg width="26" height="26" viewBox="0 0 26 26" fill="none" xmlns="http://www.w3.org/2000/svg">
<path d="M25.75 2.36945V24.1188C25.7501 24.3651 25.7017 24.6091 25.6075 24.8366C25.5133 25.0642 25.3752 25.271 25.201 25.4452C25.0269 25.6194 24.8201 25.7575 24.5925 25.8517C24.3649 25.9459 24.121 25.9943 23.8747 25.9941H2.12531C1.62795 25.9941 1.15096 25.7966 0.799266 25.4449C0.447577 25.0932 0.25 24.6162 0.25 24.1188V2.36945C0.25 1.87209 0.447577 1.3951 0.799266 1.04341C1.15096 0.691717 1.62795 0.494141 2.12531 0.494141H23.8747C24.3721 0.494141 24.849 0.691717 25.2007 1.04341C25.5524 1.3951 25.75 1.87209 25.75 2.36945ZM7.75019 10.2447H3.99956V22.2435H7.75019V10.2447ZM8.08806 6.11902C8.09002 5.83526 8.03605 5.5539 7.92924 5.29101C7.82243 5.02812 7.66487 4.78885 7.46555 4.58688C7.26624 4.3849 7.02908 4.22417 6.76764 4.11388C6.50619 4.00359 6.22557 3.94589 5.94181 3.94408H5.87487C5.29805 3.94408 4.74484 4.17322 4.33696 4.5811C3.92908 4.98898 3.69994 5.54219 3.69994 6.11902C3.69994 6.69584 3.92908 7.24905 4.33696 7.65693C4.74484 8.06481 5.29805 8.29395 5.87487 8.29395C6.44747 8.30736 7.00199 8.09304 7.41672 7.69803C7.83146 7.30301 8.07252 6.75958 8.087 6.18702L8.08806 6.11902ZM21.9994 14.9548C21.9994 11.3476 19.7044 9.94508 17.4242 9.94508C16.6777 9.90768 15.9344 10.0667 15.2685 10.4061C14.6026 10.7456 14.0373 11.2538 13.629 11.8799H13.5238V10.2458H9.9995V22.2435H13.7491V15.86C13.695 15.2065 13.9009 14.558 14.322 14.0553C14.7431 13.5527 15.3455 13.2364 15.9984 13.1751H16.1418C17.3339 13.1751 18.219 13.9252 18.219 15.8154V22.2435H21.9696L21.9994 14.9526V14.9548Z" fill="#72767F"/>
</svg>
