<svg width="134" height="387" viewBox="0 0 134 387" fill="none" xmlns="http://www.w3.org/2000/svg">
<path fill-rule="evenodd" clip-rule="evenodd" d="M25.8903 26.8676C25.8887 28.7906 23.9731 37.1559 23.4364 40.0396C23.2578 40.9962 23.3813 42.1412 23.1763 42.892C22.9515 43.7144 22.423 43.7053 22.4873 45.2389C22.5663 47.1183 23.0322 45.9962 23.5031 47.7859C25.3141 48.8807 27.6841 48.7968 30.5982 49.3096C40.5622 51.0647 45.4017 49.6924 55.9082 54.1517C58.0502 55.0605 59.4973 56.0697 61.3874 57.47C63.9056 59.3362 66.2937 62.3886 67.8775 63.872L81.303 80.6586C81.9155 81.4645 82.5864 82.0325 83.3643 82.966C85.3095 85.3014 87.812 87.4846 89.9301 89.3219L99.0511 96.3701C100.415 97.3752 100.15 96.8196 101.845 97.9737L105.018 99.9881C106.266 100.648 106.753 100.774 107.589 101.755C107.48 102.319 105.117 107.615 104.368 110.401C104.364 112.161 103.494 113.693 102.974 115.444C102.594 116.727 102.211 119.534 102.006 121.098C101.672 123.652 101.069 133.771 101.734 136.309L102.726 151.97C102.737 158.37 101.247 164.444 96.8886 169.184C96.3157 169.808 95.8333 170.285 95.2488 170.841L90.1828 175.374C89.4955 175.941 88.9818 176.262 88.3282 176.821C87.7001 177.359 87.2539 177.756 86.5608 178.325L85.191 179.433C82.5765 182.016 79.6237 183.2 78.0259 186.27L79.1586 188.63L85.1103 193.75C87.165 195.597 89.4921 196.957 91.4036 198.698C92.4112 199.615 93.3579 200.408 94.3169 201.274C94.8545 201.759 95.085 202.062 95.6694 202.65C97.3051 204.294 97.2944 204.189 98.2699 205.862C98.5654 206.368 99.1186 206.684 99.5072 207.266C99.9468 207.926 101.01 211.017 101.246 211.234L101.535 211.615C102.494 213.229 101.025 210.496 101.768 212.011C102.956 214.436 102.918 222.455 102.908 225.234C102.893 229.458 102.54 228.144 102.404 230.153C102.17 233.618 101.868 236.626 101.764 240.326C101.661 243.963 102.22 247.508 102.105 250.936C102.048 253.28 103.649 259.343 104.278 261.624C105.256 265.166 106.37 266.828 106.899 268.838C107.443 270.909 109.001 271.113 106.131 272.833C106.079 272.864 106.007 272.903 105.955 272.934L104.436 273.709C104.222 273.918 104.232 273.915 103.91 274.146L101.903 275.464C97.3372 278.302 99.1886 276.705 94.5738 280.453L81.8965 292.48C81.5277 292.939 81.3787 293.136 81.0346 293.539L65.6244 312.43C64.3378 313.935 59.392 317.817 58.1629 318.412C47.8038 323.419 40.4535 322.148 30.6007 324.064L27.0412 324.618C25.7496 324.769 25.1725 325.25 23.5911 325.569C22.8042 328.277 22.6346 326.015 23.4347 329.807C23.7953 331.515 23.5797 332.953 23.7747 333.682C25.5627 340.374 27.7491 347.593 25.8582 354.807L23.1063 360.482C22.791 360.959 22.1555 361.733 21.8221 362.2L16.6738 368.307C16.1552 368.832 15.9832 369.201 15.4144 369.783C14.8867 370.323 14.3277 370.784 13.8807 371.277L11.0152 374.181C9.33506 375.792 0.508736 384.714 0 386.307H24.9964L31.3234 374.732C34.0976 370.282 33.211 371.525 35.4271 366.704C36.9821 363.321 37.0833 362.274 37.9535 360.261C38.1132 359.891 38.4671 358.35 38.6087 357.851C39.1529 355.941 39.1883 354.609 40.0642 353.339L39.9802 343.061C40.2584 339.989 39.0096 337.88 38.7339 334.975C49.2683 333.898 56.1626 331.995 65.3248 327.513C73.1764 323.672 79.3553 319.43 85.8306 313.988C89.6157 310.806 94.0716 307.737 97.9168 304.945C100.36 303.171 103.327 301.546 105.936 300.044C109.433 298.029 114.553 296.219 118.646 295.673C122.054 295.217 122.204 294.863 126.603 295.11C129.067 295.249 132.256 296.292 134.277 296.384V257.717C133.353 257.484 133.231 257.152 132.61 256.521C132.096 255.999 131.673 255.607 131.183 254.944C129.791 253.062 130.052 253.77 128.638 251.394L127.605 249.72C125.052 244.546 123.066 240.695 121.961 234.528L117.122 215.497C116.742 214.771 116.868 214.184 116.587 213.341L110.649 201.351L106.851 196.131C105.707 194.024 104.555 194.045 103.964 192.753C103.192 191.658 101.737 190.53 100.76 189.602C95.9427 185.029 94.9187 188.525 102.344 182.032L104.469 179.773C104.812 179.376 106.346 177.485 106.729 177.205C107.073 176.212 110.211 172.219 110.498 171.865L113.025 167.189C113.893 165.34 115.228 163.683 115.707 161.612L118.028 154.81C118.15 154.127 118.167 153.4 118.307 152.597C118.478 151.615 118.6 151.956 118.915 151.095C119.363 149.871 119.075 148.923 120.585 144.931L121.242 142.337C121.698 138.924 122.722 134.161 123.822 131.056L126.297 125.266C126.697 124.742 126.215 125.202 126.766 124.807C126.903 124.072 126.949 124.343 127.302 123.555C127.332 123.489 127.363 123.417 127.392 123.35C127.421 123.284 127.448 123.21 127.476 123.143L127.98 122.042C128.27 121.613 128.194 121.822 128.453 121.472L128.892 120.777C130.141 118.71 131.421 117.832 132.868 116.258C133.793 115.252 132.531 115.608 134.277 115.343V76.7978C131.611 76.9032 129.665 77.8523 126.6 77.9453C121.221 78.1083 115.567 77.863 110.783 75.5647C108.915 74.6682 105.673 73.561 104.152 72.5913C103.584 72.2299 103.602 72.0949 102.84 71.7269C100.587 70.6386 97.2113 68.1205 95.1673 66.791L85.4091 59.5123C84.3702 58.8143 84.0088 58.2363 83.0358 57.4897L71.8799 49.4413C71.0715 48.8025 69.7305 48.3852 67.7285 47.3084L60.6128 43.7596C58.5416 42.5421 58.7038 43.3299 56.0177 42.0112C54.3762 41.2052 48.795 40.1038 47.6145 39.7416C44.6082 38.8172 41.7665 38.6221 38.5338 38.3479C38.0086 35.1185 38.9784 37.044 39.2739 33.3462C39.4196 31.5195 39.3924 29.5183 39.3809 27.6678C39.3183 18.1047 37.9403 17.8265 37.5427 15.0177C37.1673 12.3711 36.6042 10.8548 35.6164 8.31195C34.6426 5.80696 32.266 1.91078 32.0569 0.501465H11.8837C12.194 1.54034 13.6033 2.27957 14.3919 3.21966C15.3032 4.30628 16.0342 4.87511 16.757 5.79298C17.437 6.65733 17.4921 6.58406 18.0848 7.20805C18.2132 7.34305 18.5639 7.77276 18.7079 7.97527L19.7336 9.38375C21.5192 11.3388 24.2143 15.2565 24.984 17.7771C26.0114 21.1431 25.4014 23.2678 25.8895 26.8668L25.8903 26.8676Z" fill="#3568FF"/>
<path fill-rule="evenodd" clip-rule="evenodd" d="M39.9846 343.06C40.3937 343.528 40.1369 342.56 40.3048 344.039C40.3386 344.334 40.327 345.076 40.3287 345.41C40.3336 346.362 40.3188 347.313 40.3468 348.263C45.5017 348.355 55.962 345.704 60.5044 343.278C62.8366 342.031 66.0363 341.095 69.0451 339.194L76.9568 334.464C77.8936 333.835 78.5291 333.378 79.3202 332.712L100.095 317.016C100.379 316.808 100.523 316.728 100.753 316.557L104.773 314.253C105.91 313.524 104.819 313.884 106.007 313.38C113.293 310.289 118.504 308.577 126.881 308.806C129.456 308.877 132.044 309.966 134.281 310.047V296.381C132.261 296.289 129.071 295.246 126.607 295.107C122.208 294.861 122.058 295.215 118.65 295.67C114.557 296.216 109.438 298.027 105.94 300.041C103.331 301.543 100.364 303.168 97.9212 304.942C94.076 307.735 89.6201 310.803 85.835 313.985C79.3598 319.427 73.1808 323.669 65.3292 327.51C56.167 331.992 49.2727 333.895 38.7383 334.972C39.0141 337.878 40.2629 339.987 39.9846 343.058V343.06Z" fill="#02144A"/>
<path fill-rule="evenodd" clip-rule="evenodd" d="M76.5623 359.37C76.2824 363.856 77.7518 368.719 78.5314 372.623C79.4657 377.303 80.4395 381.206 80.5499 386.305H97.4114C97.4624 382.877 97.6493 380.6 97.3423 377.244C97.1743 375.412 95.821 369.884 95.9897 369.157C106.196 368.422 107.421 367.903 116.825 364.985C122.834 363.12 133.254 357.614 134.282 357.36V335.823C133.519 336.233 130.618 339.706 129.193 341.154C120.035 350.459 113.806 351.77 101.379 353.902C99.723 354.186 98.2362 354.237 96.4532 354.381L83.3397 356.229C79.2089 356.841 77.8835 356.519 76.5623 359.369V359.37Z" fill="#FFC73C"/>
<path fill-rule="evenodd" clip-rule="evenodd" d="M104.371 110.4C105.12 107.614 107.482 102.318 107.592 101.755C106.756 100.774 106.268 100.648 105.021 99.9877L101.848 97.9734C100.153 96.8193 100.417 97.3758 99.0538 96.3698L89.9327 89.3216C87.8138 87.4842 85.3121 85.3003 83.3669 82.9657C82.589 82.0322 81.9189 81.4642 81.3056 80.6583L67.8801 63.8716C66.2963 62.3882 63.9082 59.3358 61.39 57.4696C59.5 56.0686 58.0528 55.0602 55.9108 54.1514C45.4044 49.6921 40.5648 51.0644 30.6008 49.3093C27.6875 48.7964 25.3167 48.8796 23.5057 47.7856L22.3516 47.6514L22.3359 59.2321C22.4454 60.5764 22.5467 59.9516 23.3328 61.2078C23.5617 61.5725 23.3172 61.3897 23.6992 61.8853L30.5547 63.0592C31.9509 63.237 33.0144 63.1958 34.3274 63.4304L51.6755 66.3198C53.4972 66.6467 58.6101 68.9829 60.0268 70.1008C60.9521 70.831 61.0929 71.2969 62.2124 71.9909C63.1657 72.5827 63.5443 73.0931 64.4548 73.8891C65.0055 74.3707 64.9701 74.3188 65.4517 74.8177C66.5811 75.985 66.2263 76.0533 67.3368 77.0222L75.642 87.1236C75.9565 87.5336 75.7326 87.2455 75.9837 87.6069L79.1266 91.8661C79.6996 92.5156 79.8856 92.3222 80.6092 93.4252C81.8547 95.3268 81.8769 95.1136 83.2821 96.7855L85.3739 98.8221C87.3347 100.342 89.3162 102.848 93.5227 106.026C95.4712 107.499 101.395 112.232 103.562 112.495C103.679 112.142 103.834 111.489 103.886 111.336C104.26 110.232 103.659 110.973 104.372 110.4H104.371Z" fill="#02144A"/>
<path fill-rule="evenodd" clip-rule="evenodd" d="M75.661 13.8282C77.0662 15.1601 74.8131 16.2221 82.5363 17.2091C85.541 17.5935 88.4848 18.0026 91.6244 18.4101C109.382 20.7159 116.707 20.5051 129.236 32.9667L134.281 38.3735V16.4814C133.292 16.3439 130.931 14.9239 129.952 14.4308C128.64 13.7714 127.249 13.019 125.925 12.4279C122.884 11.068 120.338 10.1106 117.139 8.84128C110.696 6.28525 104.066 5.16651 97.1044 4.44539C96.664 3.25587 96.8295 1.78401 96.9061 0.501465H77.8153C77.5552 4.56312 75.9269 9.37963 75.6602 13.8282H75.661Z" fill="#FFC73C"/>
<path fill-rule="evenodd" clip-rule="evenodd" d="M134.28 51.853V38.3749L129.236 32.9681C116.707 20.5057 109.383 20.7173 91.6237 18.4115C88.4841 18.004 85.5403 17.5941 82.5357 17.2105C74.8132 16.2235 77.0655 15.1615 75.6603 13.8296C75.6653 16.2226 75.359 26.9044 76.0982 28.4874C76.4547 29.2505 76.0398 28.7015 76.7379 29.2497C78.2106 30.4047 80.7485 30.7545 82.5291 30.9924C94.4671 32.5853 102.17 32.4273 113.77 36.0584C116.014 36.7606 123.337 40.5111 125.313 42.653C126.407 43.8376 127.439 44.6707 128.366 45.647C130.037 47.4053 131.474 48.8385 132.844 50.792C133.69 51.9971 133.204 51.6431 134.28 51.8555V51.853Z" fill="#734C06"/>
<path fill-rule="evenodd" clip-rule="evenodd" d="M97.4081 386.306H97.7547L97.898 382.621L103.28 382.042C110.794 380.917 118.999 378.222 125.836 374.852C127.274 374.144 128.935 373.655 130.043 372.994C131.379 372.195 132.696 371.179 134.28 371.046V357.36C133.252 357.615 122.832 363.121 116.822 364.986C107.418 367.903 106.193 368.422 95.9873 369.158C95.8177 369.884 97.1719 375.413 97.3398 377.245C97.6469 380.601 97.46 382.878 97.409 386.306H97.4081Z" fill="#734C06"/>
<path fill-rule="evenodd" clip-rule="evenodd" d="M101.243 211.234C101.008 211.017 99.9441 207.926 99.5045 207.266C99.116 206.684 98.5628 206.368 98.2673 205.862C97.291 204.189 97.3025 204.295 95.6668 202.65C95.0831 202.062 94.8527 201.76 94.3143 201.274C93.3553 200.408 92.4086 199.615 91.401 198.698C89.4895 196.957 87.1623 195.598 85.1076 193.75L79.1559 188.63C78.052 187.95 78.8464 187.994 77.8857 187.735C77.6519 190.147 77.8216 193.118 77.8158 195.599C77.8002 201.675 77.7565 201.53 81.251 204.163L84.1042 206.495C87.4093 209.43 94.4468 214.521 96.6332 217.314C97.2515 218.103 97.817 218.443 98.4171 219.377L100.421 223.474C101.074 225.06 100.754 223.76 101.342 224.653C101.444 224.808 102.106 227.24 102.264 227.693C102.476 224.742 102.54 221.877 102.4 218.918C102.267 216.122 101.433 213.746 101.244 211.235L101.243 211.234Z" fill="#02144A"/>
<path fill-rule="evenodd" clip-rule="evenodd" d="M26.8551 26.8653C26.367 23.2663 26.9778 21.1408 25.9496 17.7756C25.1799 15.255 22.4848 11.3366 20.6993 9.38228L19.6736 7.97381C19.5295 7.7713 19.1788 7.34076 19.0504 7.20658C18.4577 6.58342 18.4026 6.65587 17.7226 5.79151C16.9998 4.87365 16.2697 4.30482 15.3576 3.2182C14.5689 2.27811 13.1596 1.53887 12.8493 0.5H0C0.199214 1.88626 0.572932 1.51252 1.28335 2.48636C3.02688 4.87528 7.38079 9.23987 9.74254 11.3209C11.4276 12.806 10.7773 12.6364 11.803 13.6456L12.2393 14.0301C12.6328 14.3824 12.8657 14.5841 13.274 14.9175C16.0029 17.1491 14.6537 16.8182 16.7274 18.3131L20.6384 22.9379C20.9907 23.4046 21.0055 23.4194 21.357 23.8294C22.1366 24.739 22.7688 26.3163 24.281 28.0532C24.6646 28.4936 24.5963 28.3627 24.8968 29.0032C25.11 29.4568 25.2598 29.9499 25.9068 30.2775C26.8691 28.1997 25.8599 27.7585 26.8535 26.8662L26.8551 26.8653Z" fill="#02144A"/>
<path fill-rule="evenodd" clip-rule="evenodd" d="M106.73 177.204C108.962 176.318 107.195 176.174 109.165 175.991C109.156 176.741 109.243 177.548 109.007 178.246C108.484 179.798 108.746 178.198 108.313 179.409C109.395 179.95 109.395 178.766 109.92 179.958C109.682 180.559 108.832 180.281 109.091 183.81C109.172 184.908 109.756 185.414 109.796 185.332C109.819 185.285 109.904 185.454 109.93 185.529C108.394 186.482 109.572 186.535 108.3 188.005C107.968 188.388 108.174 188.145 107.771 188.465L107.801 189.357L115.405 175.923L118.056 168.087C119.742 160.287 121.851 150.057 124.518 142.814C124.821 142.172 126.148 135.185 126.204 134.15C126.29 132.565 126.303 130.463 126.209 128.882C126.01 125.545 126.942 128.032 126.767 124.806C126.216 125.201 126.698 124.742 126.298 125.266L123.823 131.056C122.724 134.161 121.699 138.923 121.243 142.337L120.587 144.93C119.078 148.923 119.364 149.871 118.916 151.095C118.602 151.956 118.479 151.614 118.309 152.596C118.17 153.4 118.152 154.127 118.03 154.81L115.708 161.611C115.23 163.682 113.894 165.34 113.026 167.188L110.499 171.864C110.213 172.218 107.075 176.211 106.73 177.204Z" fill="#02144A"/>
<path fill-rule="evenodd" clip-rule="evenodd" d="M24.9969 386.306H32.758C33.0634 384.452 33.7475 384.08 34.3443 382.634C36.3562 377.763 36.6978 378.062 38.3574 371.556C39.7116 366.247 40.855 359.601 40.0639 353.338C39.188 354.608 39.1526 355.941 38.6085 357.85C38.4669 358.349 38.1129 359.89 37.9532 360.26C37.0831 362.272 36.9818 363.32 35.4268 366.703C33.2108 371.524 34.0982 370.281 31.3232 374.731L24.9961 386.306H24.9969Z" fill="#02144A"/>
<path fill-rule="evenodd" clip-rule="evenodd" d="M126.765 124.806C126.939 128.032 126.007 125.544 126.206 128.882C126.301 130.463 126.288 132.565 126.202 134.15C126.146 135.185 124.819 142.172 124.516 142.813L126.416 139.228C127.38 137.235 126.722 137.556 128.76 134.912L129.004 134.601C129.297 134.247 129.349 134.244 129.637 133.896C130.792 132.502 129.757 133.044 132.133 130.615C132.933 129.799 132.816 129.974 133.452 128.956L134.275 128.888V115.343C132.529 115.608 133.791 115.253 132.866 116.258C131.419 117.831 130.139 118.71 128.89 120.777L128.451 121.472C128.192 121.822 128.269 121.613 127.978 122.042L127.474 123.143C127.447 123.211 127.419 123.283 127.39 123.35C127.361 123.417 127.33 123.489 127.301 123.555C126.947 124.343 126.901 124.072 126.764 124.807L126.765 124.806Z" fill="#02144A"/>
<path fill-rule="evenodd" clip-rule="evenodd" d="M106.731 177.205C106.348 177.486 104.814 179.375 104.47 179.773L102.346 182.032C94.9212 188.525 95.9453 185.029 100.762 189.602C101.739 190.53 103.194 191.657 103.966 192.753C104.33 192.897 104.513 192.897 104.905 193.081C105.526 191.977 105.624 192.257 106.352 191.28C106.867 190.59 107.225 189.921 107.8 189.357L107.77 188.465C108.173 188.145 107.967 188.389 108.3 188.005C109.572 186.536 108.394 186.482 109.93 185.53C109.903 185.455 109.819 185.285 109.796 185.332C109.756 185.414 109.172 184.907 109.091 183.811C108.831 180.283 109.681 180.559 109.92 179.958C109.395 178.766 109.395 179.952 108.312 179.409C108.746 178.198 108.483 179.799 109.007 178.246C109.242 177.549 109.156 176.741 109.164 175.991C107.194 176.175 108.962 176.318 106.73 177.205H106.731Z" fill="#02144A"/>
<path fill-rule="evenodd" clip-rule="evenodd" d="M104.437 273.708L105.957 272.934C106.008 272.903 106.08 272.864 106.132 272.832C109.002 271.113 107.444 270.909 106.9 268.837C106.371 266.827 105.258 265.165 104.28 261.624C103.65 259.342 102.05 253.279 102.107 250.935C100.822 250.592 101.736 250.728 101.305 251.027C101.385 256.878 101.071 262.987 102.435 268.641C102.694 269.717 102.601 270.135 102.938 271.16C103.275 272.188 103.278 272.375 103.44 273.654L104.436 273.708H104.437Z" fill="#02144A"/>
<path fill-rule="evenodd" clip-rule="evenodd" d="M78.4253 386.306H80.5516C80.4413 381.207 79.4675 377.304 78.5331 372.624C77.7536 368.719 76.2842 363.857 76.564 359.371C76.0932 359.908 76.3796 359.24 76.131 360.246C76.0652 360.512 76.0644 360.771 76.0586 361.044L76.1878 366.549C76.1944 368.983 76.0899 371.565 76.2027 373.967L78.4261 386.306H78.4253Z" fill="#734C06"/>
</svg>
