<svg width="116" height="40" viewBox="0 0 116 40" fill="none" xmlns="http://www.w3.org/2000/svg">
<g clip-path="url(#clip0_550_11964)">
<path d="M93.3305 1.10204C93.3586 0.57442 95.4467 0.552173 95.4349 0.965933C95.4233 1.37969 94.6715 6.21969 94.3999 8.29131C101.67 8.72401 110.224 9.91506 110.274 9.92225C110.821 9.91069 110.466 11.5089 110.258 11.4583C107.878 11.4583 105.713 11.1306 103.308 10.8683C100.286 10.5389 96.9961 10.2087 94.1783 9.99298C93.5258 11.8236 93.5111 13.6943 93.4528 14.3799C95.2609 15.4851 106.052 16.0827 105.896 23.6766C105.801 28.2701 101.46 31.9845 96.9267 30.6944C91.6773 29.2002 90.7338 22.5545 91.1741 16.0359C80.424 14.2667 74.5195 6.45537 92.4909 8.0052C92.9262 5.97944 93.3024 1.62956 93.3305 1.10185V1.10204ZM93.801 16.6528C93.5906 22.6632 94.6765 25.9455 96.2099 27.419C98.7789 29.887 102.504 26.7225 102.977 23.8145C103.722 19.2353 97.2082 17.3869 93.801 16.6529V16.6528ZM91.4554 13.7699C91.5968 12.6308 91.7686 10.8821 91.954 9.83239C82.8723 8.46132 81.4502 12.5955 91.4554 13.7699Z" fill="#FFAF1C"/>
<path fill-rule="evenodd" clip-rule="evenodd" d="M110.061 12.8142C110.435 12.8784 115.098 11.569 115.136 11.5139C115.042 11.4084 110.834 8.62241 110.507 8.56616C111.715 11.243 110.448 12.2263 110.061 12.8142Z" fill="#FFAF1C"/>
<path d="M20.0608 33.7521L25.3957 34.1107C25.0814 35.555 24.2707 36.7831 22.9689 37.8C21.6721 38.8169 19.9134 39.3228 17.6979 39.3228C15.2318 39.3228 13.2669 38.6105 11.798 37.1859C10.3292 35.7613 9.59717 33.9928 9.59717 31.8853C9.59717 29.6943 10.3193 27.8473 11.7685 26.3441C13.2176 24.836 15.1532 24.0844 17.5701 24.0844C19.9084 24.0844 21.7997 24.7918 23.244 26.2115C24.6883 27.6311 25.4103 29.5617 25.4103 32.0033C25.4103 32.2047 25.4054 32.4846 25.3955 32.8384H15.61C15.6296 33.7668 15.7916 34.4545 16.1012 34.9065C16.4058 35.3535 16.9904 35.5794 17.855 35.5794C19.1076 35.5794 19.8396 34.9703 20.0607 33.7521H20.0608ZM14.7045 29.1205C14.9737 29.2501 17.6117 30.3733 17.8073 30.3857C18.1455 30.4074 20.6015 29.324 20.9958 29.1024C20.6024 28.8648 18.119 27.7771 17.805 27.7918C17.5494 27.804 14.9136 28.9596 14.7045 29.1205Z" fill="#0433BF"/>
<path d="M42.771 24.3794L38.3352 29.3948L43.272 39.0277H37.338L34.5921 33.2165L33.0448 34.9947V39.0277H27.6511V19.3689H33.0448V27.2629C33.0448 27.4839 33.035 28.3632 33.0153 29.9008C33.3591 29.4145 33.708 28.9723 34.0616 28.5745L37.7163 24.3794H42.771Z" fill="#0433BF"/>
<path d="M43.2612 34.8722L47.8002 34.2533C48.0605 35.3144 49.0921 35.8449 50.8949 35.8449C52.3881 35.8449 53.1348 35.5551 53.1348 34.9804C53.1348 34.7298 52.9924 34.5382 52.7025 34.3958C52.4127 34.2583 51.725 34.1158 50.6492 33.9734C47.6576 33.5608 45.7959 32.9173 45.0541 32.038C44.3124 31.1637 43.939 30.1861 43.939 29.1103C43.939 27.6121 44.5629 26.3988 45.8155 25.4753C47.0681 24.5468 48.7088 24.0851 50.7424 24.0851C54.3038 24.0851 56.5733 25.3623 57.5557 27.9216L53.2231 28.7419C52.8154 27.8774 51.9558 27.4451 50.6492 27.4451C50.0302 27.4451 49.5636 27.5286 49.2591 27.6956C48.9545 27.8676 48.8023 28.0296 48.8023 28.1967C48.8023 28.6731 49.264 28.968 50.1875 29.0711C52.5896 29.3412 54.2205 29.6114 55.0752 29.8914C55.9299 30.1665 56.6619 30.6773 57.266 31.4142C57.8702 32.1559 58.1748 33.05 58.1748 34.0963C58.1748 35.6977 57.5068 36.97 56.1657 37.9131C54.8247 38.8513 52.9776 39.323 50.6247 39.323C46.6556 39.323 44.2044 37.8395 43.2612 34.8724V34.8722Z" fill="#0433BF"/>
<path d="M74.5647 39.0277H68.8173V30.2102C68.8173 29.4046 68.7289 28.8495 68.5521 28.545C68.3753 28.2454 68.0364 28.093 67.5304 28.093C67.1374 28.093 66.7985 28.2109 66.5037 28.4468C66.2139 28.6825 66.042 28.9232 65.9978 29.1737C65.9486 29.4243 65.9241 29.945 65.9241 30.7457V39.0277H60.1768V19.3689H65.9241V26.1134C66.9606 24.7625 68.3164 24.0846 69.9865 24.0846C70.8314 24.0846 71.5732 24.232 72.2117 24.5218C72.8503 24.8166 73.3416 25.1948 73.6904 25.6517C74.0343 26.1134 74.2651 26.5604 74.3879 26.9927C74.5057 27.425 74.5647 28.26 74.5647 29.4979V39.0277Z" fill="#0433BF"/>
<path d="M83.8109 28.0929H78.3876H76.2065V24.3791H78.3876C78.3876 23.1755 78.4417 22.2815 78.5448 21.7017C78.6529 21.1221 78.9132 20.567 79.3357 20.0365C79.7582 19.506 80.3232 19.1031 81.0305 18.8181C81.7428 18.5381 82.6958 18.3956 83.8895 18.3956C85.1766 18.3956 86.4047 18.4939 87.5837 18.6904V22.4337C86.6799 22.3158 86.0068 22.2568 85.5598 22.2568C85.1177 22.2568 84.7051 22.3452 84.3366 22.527C83.9682 22.7088 83.7815 23.1559 83.7815 23.8632V24.3791H87.4953V28.0929H83.811H83.8109Z" fill="#0433BF"/>
<path d="M8.46177 24.3787V28.0926H5.54378V33.4914C5.54378 34.2332 5.68134 34.6703 5.96133 34.8079C6.23646 34.9504 6.52625 35.0192 6.82101 35.0192C7.28276 35.0192 7.82806 34.9407 8.46177 34.7835V38.8805C7.33192 39.0965 6.21683 39.2046 5.12623 39.2046C3.35772 39.2046 2.06087 38.8264 1.23063 38.065C0.405342 37.3085 -0.012207 36.0951 -0.012207 34.4347L0.00255971 32.7203C0.00255971 32.2149 0.00226826 31.7539 0.00187967 31.3282C8.65441 27.7657 -0.102362 30.0422 0.0909659 19.604L5.54378 19.5156V24.3789H8.46177V24.3787Z" fill="#0433BF"/>
<path fill-rule="evenodd" clip-rule="evenodd" d="M7.56301 36.5417H7.34277L7.52629 36.7987L7.56301 36.5417Z" fill="#0433BF"/>
<path d="M84.0085 26.6945L78.4672 26.7019C78.4672 27.1737 78.4669 27.604 78.4666 28.0014C87.1192 31.3268 78.3623 29.202 78.5556 38.9454L84.0085 39.028V26.6945Z" fill="#0433BF"/>
</g>
<defs>
<clipPath id="clip0_550_11964">
<rect width="115.144" height="38.6442" fill="white" transform="translate(0 0.677856)"/>
</clipPath>
</defs>
</svg>
