<svg width="25" height="26" viewBox="0 0 25 26" fill="none" xmlns="http://www.w3.org/2000/svg">
<mask id="mask0_583_8553" style="mask-type:luminance" maskUnits="userSpaceOnUse" x="0" y="0" width="25" height="26">
<path d="M25 0.744141H0V25.7441H25V0.744141Z" fill="white"/>
</mask>
<g mask="url(#mask0_583_8553)">
<path d="M22.0703 0.744141H2.92969C1.31167 0.744141 0 2.05581 0 3.67383V22.8145C0 24.4325 1.31167 25.7441 2.92969 25.7441H22.0703C23.6883 25.7441 25 24.4325 25 22.8145V3.67383C25 2.05581 23.6883 0.744141 22.0703 0.744141Z" fill="#72767F"/>
<path d="M17.3781 5.62695H19.9625L14.3164 12.0801L20.9586 20.8613H15.7578L11.6844 15.5355L7.02346 20.8613H4.43755L10.4766 13.959L4.10474 5.62695H9.43752L13.1196 10.4949L17.3781 5.62695ZM16.4711 19.3145H17.9031L8.6594 7.09258H7.12268L16.4711 19.3145Z" fill="white"/>
</g>
</svg>
